<svg width="43" height="41" viewBox="0 0 43 41" fill="none" xmlns="http://www.w3.org/2000/svg">
<path fill-rule="evenodd" clip-rule="evenodd" d="M5 0C2.23858 0 0 2.23858 0 5V36C0 38.7614 2.23858 41 5 41H37.6735C40.4349 41 42.6735 38.7614 42.6735 36V5C42.6735 2.23858 40.4349 0 37.6735 0H5ZM9.39306 25.9752C9.39306 26.5621 9.53376 27.0096 9.81517 27.3177C10.1114 27.6112 10.5853 27.7579 11.237 27.7579H18.9683C20.0939 27.7579 20.6567 27.2077 20.6567 26.1073C20.6567 25.0215 20.0939 24.4787 18.9683 24.4787H14.5472L17.0799 21.9697C18.087 20.9867 18.8053 20.0697 19.2349 19.2187C19.6644 18.3677 19.8791 17.4727 19.8791 16.5337C19.8791 15.0665 19.3978 13.9441 18.4351 13.1664C17.4872 12.3888 16.1098 12 14.3029 12C13.5623 12 12.8218 12.088 12.0812 12.2641C11.3555 12.4255 10.652 12.6823 9.97068 13.0344C9.5856 13.2398 9.319 13.5039 9.17089 13.8267C9.02279 14.1348 8.97095 14.4503 9.01538 14.773C9.07462 15.0958 9.20792 15.3819 9.41527 15.6314C9.62263 15.8808 9.88922 16.0495 10.2151 16.1376C10.5409 16.2109 10.9038 16.1522 11.3037 15.9615C11.748 15.7267 12.1701 15.5653 12.57 15.4773C12.9847 15.3746 13.3698 15.3232 13.7252 15.3232C15.1619 15.3232 15.8802 15.8808 15.8802 16.9959C15.8802 17.436 15.7543 17.8835 15.5025 18.3384C15.2656 18.7785 14.8583 19.2994 14.2806 19.901L10.3928 23.9285C10.0818 24.2366 9.83738 24.552 9.65965 24.8748C9.48192 25.1976 9.39306 25.5644 9.39306 25.9752ZM23.5806 25.9092C24.6025 27.3031 26.0836 28 28.0238 28C29.964 28 31.4451 27.3031 32.4671 25.9092C33.489 24.5007 34 22.5053 34 19.923C34 17.3553 33.489 15.3966 32.4671 14.0468C31.4451 12.6823 29.964 12 28.0238 12C26.0836 12 24.6025 12.6823 23.5806 14.0468C22.5586 15.3966 22.0476 17.3627 22.0476 19.945C22.0476 22.5126 22.5586 24.5007 23.5806 25.9092ZM29.6012 23.6424C29.2605 24.4053 28.7347 24.7868 28.0238 24.7868C27.3129 24.7868 26.7797 24.4053 26.4243 23.6424C26.0836 22.8647 25.9133 21.6249 25.9133 19.923C25.9133 18.2357 26.0836 17.0326 26.4243 16.3136C26.7797 15.58 27.3129 15.2132 28.0238 15.2132C28.7347 15.2132 29.2605 15.58 29.6012 16.3136C29.9566 17.0326 30.1344 18.2357 30.1344 19.923C30.1344 21.6249 29.9566 22.8647 29.6012 23.6424Z" fill="white"/>
</svg>
