<svg width="57" height="34" viewBox="0 0 57 34" fill="none" xmlns="http://www.w3.org/2000/svg">
<path fill-rule="evenodd" clip-rule="evenodd" d="M40.6348 0.338387C45.5767 1.49425 47.4671 4.40692 49.8372 8.41584H40.6348V0.338387ZM11.7538 8.75247C12.7214 8.75247 13.4237 9.22324 13.4237 10.3234C13.4237 11.2514 12.6788 12.004 11.7586 12.0066H1.66992C0.747551 12.0066 0 12.7605 0 13.6898C0 14.6195 0.747551 15.3729 1.66992 15.3729H16.6992C17.6303 15.3729 18.3757 16.126 18.3757 17.0561C18.3757 17.9858 17.6281 18.7393 16.7057 18.7393H1.66992C0.747551 18.7393 0 19.4928 0 20.4224C0 21.3521 0.747551 22.1056 1.66992 22.1056H5.34375V27.1551C5.34375 28.0848 6.0913 28.8383 7.01367 28.8383H10.3705C10.9689 31.8093 13.5733 34 16.6436 34C19.7138 34 22.3182 31.8093 22.9166 28.8383H39.8724C40.4708 31.8093 43.0753 34 46.1455 34C49.2157 34 51.8202 31.8093 52.4186 28.8383H55.3301C56.2524 28.8383 57 28.0848 57 27.1551V17.0561C57 12.1175 51.8319 11.7896 51.8272 11.7822H38.9648C38.0425 11.7822 37.2949 11.0287 37.2949 10.099V0H7.01367C6.0913 0 5.34375 0.753481 5.34375 1.68317V5.38614H3.33984C2.41747 5.38614 1.66992 6.13962 1.66992 7.06931C1.66992 7.99899 2.41747 8.75247 3.33984 8.75247H11.7538ZM48.3103 25.3659C49.5058 26.5708 49.5058 28.5253 48.3103 29.7303C46.3873 31.6685 43.084 30.2896 43.084 27.5479C43.084 24.8066 46.3873 23.4276 48.3103 25.3659ZM18.8084 25.3659C20.0038 26.5708 20.0038 28.5253 18.8084 29.7303C16.8853 31.6685 13.582 30.2896 13.582 27.5479C13.582 24.8066 16.8853 23.4276 18.8084 25.3659Z" fill="white"/>
</svg>
