<svg width="43" height="41" viewBox="0 0 43 41" fill="none" xmlns="http://www.w3.org/2000/svg">
<path fill-rule="evenodd" clip-rule="evenodd" d="M5 0C2.23858 0 0 2.23858 0 5V36C0 38.7614 2.23858 41 5 41H37.6735C40.4349 41 42.6735 38.7614 42.6735 36V5C42.6735 2.23858 40.4349 0 37.6735 0H5ZM29.7455 24.4718C30.9268 25.6447 32.4992 26.2906 34.1735 26.2906C34.6292 26.2906 34.9986 26.66 34.9986 27.1157C34.9986 27.5715 34.6292 27.9408 34.1735 27.9408C30.7223 27.9408 27.9143 30.7373 27.9143 34.1746C27.9143 34.6303 27.5448 34.9997 27.0892 34.9997C26.6335 34.9997 26.2641 34.6303 26.2641 34.1746C26.2641 30.7373 23.456 27.9408 20.0048 27.9408C19.549 27.9408 19.1797 27.5715 19.1797 27.1157C19.1797 26.66 19.549 26.2906 20.0048 26.2906C21.679 26.2906 23.2515 25.6447 24.4328 24.4718C25.6137 23.2994 26.2641 21.738 26.2641 20.0751C26.2641 19.6194 26.6335 19.25 27.0892 19.25C27.5448 19.25 27.9143 19.6194 27.9143 20.0751C27.9143 21.738 28.5645 23.2994 29.7455 24.4718ZM18.1252 19.8395C15.6952 19.8395 13.7182 17.8771 13.7182 15.4647C13.7182 15.0092 13.3488 14.6396 12.8931 14.6396C12.4374 14.6396 12.068 15.0092 12.068 15.4647C12.068 17.8771 10.091 19.8395 7.66104 19.8395C7.2053 19.8395 6.83594 20.2091 6.83594 20.6646C6.83594 21.1203 7.2053 21.4897 7.66104 21.4897C10.091 21.4897 12.068 23.4583 12.068 25.878C12.068 26.3335 12.4374 26.7031 12.8931 26.7031C13.3488 26.7031 13.7182 26.3335 13.7182 25.878C13.7182 23.4583 15.6952 21.4897 18.1252 21.4897C18.5809 21.4897 18.9503 21.1203 18.9503 20.6646C18.9503 20.2091 18.5809 19.8395 18.1252 19.8395ZM22.7107 15.7546C22.7107 13.9813 21.2567 12.5384 19.4696 12.5384C19.0139 12.5384 18.6445 12.1691 18.6445 11.7133C18.6445 11.2576 19.0139 10.8882 19.4696 10.8882C21.2567 10.8882 22.7107 9.44089 22.7107 7.66177C22.7107 7.20603 23.0801 6.83667 23.5358 6.83667C23.9916 6.83667 24.3609 7.20603 24.3609 7.66177C24.3609 9.43509 25.8149 10.8779 27.602 10.8779C28.0577 10.8779 28.4271 11.2473 28.4271 11.703C28.4271 12.1586 28.0577 12.5281 27.602 12.5281C25.8149 12.5281 24.3609 13.9755 24.3609 15.7546C24.3609 16.2101 23.9916 16.5797 23.5358 16.5797C23.0801 16.5797 22.7107 16.2101 22.7107 15.7546Z" fill="white"/>
</svg>
