<svg width="47" height="47" viewBox="0 0 47 47" fill="none" xmlns="http://www.w3.org/2000/svg">
<circle cx="23.5002" cy="23.5002" r="23.5002" fill="#4FD758"/>
<path d="M29.225 25.5125C28.9117 25.354 27.3859 24.6094 27.1008 24.5032C26.8156 24.4016 26.6086 24.3485 26.4008 24.6618C26.1977 24.9672 25.5992 25.6665 25.4164 25.8704C25.2336 26.0743 25.0539 26.0899 24.7453 25.9516C24.432 25.793 23.4312 25.4672 22.243 24.4016C21.3148 23.5758 20.6969 22.5586 20.5133 22.2454C20.3305 21.936 20.493 21.761 20.6477 21.6063C20.7898 21.4641 20.9609 21.2485 21.1195 21.061C21.2703 20.8735 21.3188 20.7477 21.4289 20.5446C21.5305 20.325 21.4781 20.154 21.4008 19.9993C21.3234 19.8446 20.7008 18.311 20.4406 17.7C20.1922 17.0938 19.932 17.1711 19.7406 17.1711C19.5617 17.1547 19.3539 17.1547 19.1469 17.1547C18.9398 17.1547 18.6016 17.2321 18.3164 17.529C18.0312 17.8422 17.2258 18.5907 17.2258 20.1047C17.2258 21.6227 18.3406 23.0915 18.4953 23.311C18.6539 23.5141 20.6883 26.6391 23.8094 27.9821C24.5539 28.2954 25.132 28.4829 25.5836 28.6375C26.3281 28.8735 27.0078 28.8407 27.5445 28.7633C28.1383 28.6657 29.3836 28.0102 29.6445 27.2782C29.9094 26.5415 29.9094 25.9313 29.832 25.793C29.7547 25.6508 29.5516 25.5735 29.2383 25.4352L29.225 25.5125ZM23.5648 33.1868H23.5484C21.7008 33.1868 19.8742 32.686 18.2789 31.75L17.9047 31.5266L13.9984 32.5438L15.0484 28.743L14.7961 28.3524C13.7644 26.712 13.2171 24.8136 13.2172 22.8758C13.2172 17.204 17.8602 12.5774 23.5727 12.5774C26.3398 12.5774 28.9359 13.6555 30.8891 15.6086C31.8526 16.5607 32.6168 17.695 33.1373 18.9456C33.6577 20.1961 33.9239 21.5377 33.9203 22.8922C33.9125 28.5602 29.2734 33.1868 23.5687 33.1868H23.5648ZM32.3742 14.1235C29.9977 11.8282 26.8727 10.5305 23.5484 10.5305C16.6922 10.5305 11.1094 16.0891 11.1055 22.9204C11.1055 25.1016 11.675 27.2297 12.7656 29.1133L11 35.5305L17.6 33.8094C19.4284 34.7952 21.4721 35.3137 23.5492 35.3188H23.5531C30.4133 35.3188 35.9961 29.7602 36 22.9243C36 19.6165 34.7102 16.5032 32.3586 14.1633L32.3742 14.1235Z" fill="white"/>
</svg>
