<svg width="41" height="41" viewBox="0 0 41 41" fill="none" xmlns="http://www.w3.org/2000/svg">
<path d="M20.5012 3.66077C29.8023 3.66077 37.3405 11.2004 37.3405 20.5001C37.3405 29.7997 29.8023 37.3393 20.5012 37.3393C17.6458 37.3393 14.893 36.6262 12.4476 35.2923L5.53032 37.2837C5.2788 37.3563 5.01244 37.3601 4.75895 37.2947C4.50547 37.2294 4.27413 37.0973 4.08904 36.9122C3.90394 36.7271 3.77184 36.4958 3.7065 36.2423C3.64116 35.9888 3.64497 35.7224 3.71753 35.4709L5.71189 28.558C4.36293 26.0867 3.65792 23.3155 3.66189 20.5001C3.66189 11.2004 11.203 3.66077 20.5012 3.66077ZM21.5979 22.6965H15.0086L14.8607 22.7067C14.5979 22.7429 14.357 22.873 14.1827 23.073C14.0083 23.273 13.9122 23.5294 13.9122 23.7947C13.9122 24.06 14.0083 24.3164 14.1827 24.5164C14.357 24.7164 14.5979 24.8465 14.8607 24.8827L15.0086 24.8929H21.5965L21.7444 24.8827C22.0072 24.8465 22.2481 24.7164 22.4224 24.5164C22.5968 24.3164 22.6929 24.06 22.6929 23.7947C22.6929 23.5294 22.5968 23.273 22.4224 23.073C22.2481 22.873 22.0072 22.7429 21.7444 22.7067L21.5965 22.6965H21.5979ZM25.9996 16.1072H15.0086L14.8607 16.1174C14.5979 16.1536 14.357 16.2837 14.1827 16.4837C14.0083 16.6837 13.9122 16.9401 13.9122 17.2054C13.9122 17.4707 14.0083 17.7271 14.1827 17.9271C14.357 18.1271 14.5979 18.2572 14.8607 18.2934L15.0086 18.3036H25.9981L26.1475 18.2934C26.4103 18.2572 26.6512 18.1271 26.8256 17.9271C26.9999 17.7271 27.096 17.4707 27.096 17.2054C27.096 16.9401 26.9999 16.6837 26.8256 16.4837C26.6512 16.2837 26.4103 16.1536 26.1475 16.1174L25.9996 16.1072Z" fill="#E4704B"/>
</svg>
