<svg width="44" height="41" viewBox="0 0 44 41" fill="none" xmlns="http://www.w3.org/2000/svg">
<path fill-rule="evenodd" clip-rule="evenodd" d="M3.16279 0C1.41603 0 0 1.41603 0 3.16279V37.3635C0 39.1103 1.41603 40.5263 3.16279 40.5263H40.8372C42.584 40.5263 44 39.1103 44 37.3635V3.16279C44 1.41603 42.584 0 40.8372 0H3.16279ZM19.4919 8.48058H12.332C11.291 8.48058 10.447 9.32452 10.447 10.3656V17.6557C10.447 18.6967 11.291 19.5407 12.332 19.5407C13.3731 19.5407 14.217 18.6967 14.217 17.6557V14.9164L27.5686 28.2679H24.5689C23.5279 28.2679 22.6839 29.1119 22.6839 30.1529C22.6839 31.194 23.5279 32.0379 24.5689 32.0379H32.1194C33.1604 32.0379 34.0044 31.194 34.0044 30.1529V22.8629C34.0044 21.8218 33.1604 20.9779 32.1194 20.9779C31.0783 20.9779 30.2344 21.8218 30.2344 22.8629V25.6021L16.8828 12.2506H19.4919C20.533 12.2506 21.3769 11.4066 21.3769 10.3656C21.3769 9.32452 20.533 8.48058 19.4919 8.48058Z" fill="white"/>
</svg>
